<?xml version="1.0" encoding="UTF-8"?>
<svg width="20px" height="21px" viewBox="0 0 20 21" version="1.1" xmlns="http://www.w3.org/2000/svg" xmlns:xlink="http://www.w3.org/1999/xlink">
    <title>canjiren_normal</title>
    <g id="人资工作台一期页面" stroke="none" stroke-width="1" fill="none" fill-rule="evenodd">
        <g id="菜单栏图标" transform="translate(-167.000000, -347.000000)">
            <g id="canjiren_normal" transform="translate(167.000000, 347.000000)">
                <rect id="矩形" fill="#D8D8D8" opacity="0" x="0" y="0" width="20" height="20"></rect>
                <path d="M4.99123033,5.67051879 C5.13705859,6.04716958 4.97580052,6.46721127 4.6294793,6.65397038 L4.53911413,6.69563999 C3.73525953,7.00742039 2.45702847,8.61947229 1.90612502,10.3465817 C1.1926849,12.5832514 1.63251757,14.7390766 3.52588942,16.5553149 C6.9804786,19.8691684 11.4259378,18.6901096 13.5759259,15.8327569 C13.8389501,15.4831955 14.3352981,15.413232 14.6845503,15.676489 C15.0338025,15.9397459 15.1037042,16.4365333 14.8406801,16.7860947 C12.1830399,20.3181214 6.68142419,21.7773021 2.430346,17.6994075 C0.0779554128,15.4428504 -0.491374346,12.6522995 0.397823636,9.86462022 C1.08261756,7.71775765 2.66399776,5.72338665 3.96701574,5.21800239 C4.37469323,5.05988194 4.83324972,5.26248044 4.99123033,5.67051879 Z M8.23464169,0 C9.8410878,0 11.1927732,1.2281702 11.3786268,2.85669209 C11.5644805,4.48521398 10.5255547,5.99756419 8.9621123,6.37437952 L8.9621123,6.37437952 L8.9621123,7.4068616 L13.0608662,7.4068616 C13.5278262,7.49119733 13.7633745,7.74698823 13.7675114,8.17423429 C13.7716482,8.60148034 13.5360998,8.84034121 13.0608662,8.8908169 L13.0608662,8.8908169 L8.9621123,8.8908169 L8.9621123,10.9448478 C8.96217655,10.999671 9.00574076,11.0440792 9.0594577,11.0440792 L9.0594577,11.0440792 L12.852672,11.0440792 C13.1213073,11.0440792 13.3786458,11.1521618 13.5667172,11.3439796 L13.5667172,11.3439796 L15.9106646,13.7346172 L17.3736403,12.2417489 C17.7001314,12.0513667 18.0004686,12.0757028 18.2746521,12.3147572 C18.5488355,12.5538115 18.5914584,12.879182 18.4025207,13.2908686 L18.4025207,13.2908686 L16.6237837,15.1050518 L16.6237837,15.1050518 L16.6098298,15.1190057 C16.2154705,15.505657 15.5823364,15.4994085 15.1956851,15.1050493 L15.1956851,15.1050493 L12.9631998,12.8280592 C12.775128,12.6362381 12.5177872,12.5281533 12.2491493,12.5281533 L12.2491493,12.5281533 L9.0594577,12.5281533 C8.20285482,12.5274335 7.50845487,11.8192107 7.50717109,10.9449666 L7.50717109,10.9449666 L7.50717109,6.37437952 C5.94372871,5.99756419 4.9048029,4.48521398 5.09065657,2.85669209 C5.27651024,1.2281702 6.62819559,0 8.23464169,0 Z" id="形状结合" fill="#FFFFFF" fill-rule="nonzero"></path>
            </g>
        </g>
    </g>
</svg>