<?xml version="1.0" encoding="UTF-8"?>
<svg width="20px" height="20px" viewBox="0 0 20 20" version="1.1" xmlns="http://www.w3.org/2000/svg" xmlns:xlink="http://www.w3.org/1999/xlink">
    <title>canjiren_down</title>
    <g id="人资工作台一期页面" stroke="none" stroke-width="1" fill="none" fill-rule="evenodd">
        <g id="菜单栏图标" transform="translate(-126.000000, -347.000000)">
            <g id="canjiren_down" transform="translate(126.000000, 347.000000)">
                <rect id="矩形" fill="#D8D8D8" opacity="0" x="0" y="0" width="20" height="20"></rect>
                <path d="M17.3044513,12.2417489 L15.8414756,13.7346172 L13.4975282,11.3439796 C13.3094567,11.1521618 13.0521183,11.0440792 12.783483,11.0440792 L8.99026865,11.0440792 L8.99026865,11.0440792 C8.93655171,11.0440792 8.8929875,10.999671 8.89292325,10.9448478 L8.89292325,8.8908169 L12.9916772,8.8908169 C13.4669108,8.84034121 13.7024592,8.60148034 13.6983223,8.17423429 C13.6941855,7.74698823 13.4586371,7.49119733 12.9916772,7.4068616 L8.89292325,7.4068616 L8.89292325,6.37437952 C10.4563656,5.99756419 11.4952914,4.48521398 11.3094378,2.85669209 C11.1235841,1.2281702 9.77189875,0 8.16545265,0 C6.55900654,0 5.20732119,1.2281702 5.02146752,2.85669209 C4.83561386,4.48521398 5.87453966,5.99756419 7.43798204,6.37437952 L7.43798204,10.9449666 C7.43926582,11.8192107 8.13366577,12.5274335 8.99026865,12.5281533 L12.1799602,12.5281533 C12.4485982,12.5281533 12.7059389,12.6362381 12.8940108,12.8280592 L15.126496,15.1050493 C15.5131474,15.4994085 16.1462815,15.505657 16.5406407,15.1190057 C16.5453378,15.1144004 16.5499894,15.1097489 16.5545947,15.1050518 L18.3333317,13.2908686 L18.3333317,13.2908686 C18.5222694,12.879182 18.4796465,12.5538115 18.205463,12.3147572 C17.9312796,12.0757028 17.6309423,12.0513667 17.3044513,12.2417489 Z M9.02342397,13.5833311 C8.19771694,13.5833311 7.56072239,13.3638073 7.12910553,12.9309503 C6.42856739,12.2285694 6.43228409,11.1490459 6.43228409,11.1426173 L6.43228409,7.23726098 L6.05449944,7.02297531 C5.20325508,6.54107065 4.45188207,5.5786899 4.44492824,5.56976133 L4.00575809,4.99999955 L3.41708065,5.41476136 C0.540770592,7.43520325 -0.687128843,11.0722034 0.381584268,14.4058078 C1.45029738,17.7394123 4.56964125,20.0023374 8.09292996,19.9999995 C10.7938923,19.9999995 12.9872254,18.9208299 14.612023,16.7926161 L15,16.284521 L12.3623401,13.5827358 L9.02342397,13.5827358 L9.02342397,13.5833311 Z" id="形状备份" fill="#FFFFFF" fill-rule="nonzero"></path>
            </g>
        </g>
    </g>
</svg>