<?xml version="1.0" encoding="UTF-8"?>
<svg width="20px" height="20px" viewBox="0 0 20 20" version="1.1" xmlns="http://www.w3.org/2000/svg" xmlns:xlink="http://www.w3.org/1999/xlink">
    <title>houtaiguanli_down</title>
    <g id="人资工作台一期页面" stroke="none" stroke-width="1" fill="none" fill-rule="evenodd">
        <g id="菜单栏图标" transform="translate(-126.000000, -249.000000)">
            <g id="houtaiguanli_down" transform="translate(126.000000, 249.000000)">
                <rect id="矩形" fill="#D8D8D8" opacity="0" x="0" y="0" width="20" height="20"></rect>
                <path d="M18.5900778,11.6799578 L17.0643695,10.5236316 C17.0804296,10.3630307 17.0964897,10.1863697 17.0964897,9.9936487 C17.0964897,9.80092766 17.0804296,9.6242667 17.0643695,9.46366583 L18.5900778,8.30733957 C19.00764,7.98613783 19.1200606,7.42403479 18.8470392,6.94223218 L17.1446699,4.06747661 C16.9519489,3.73021478 16.5825669,3.52143365 16.1971248,3.52143365 C16.0686441,3.52143365 15.9562235,3.53749374 15.8277428,3.585674 L14.012953,4.29231783 C13.7078113,4.0835367 13.3866096,3.90687574 13.0654079,3.76233496 L12.7923864,1.91542496 C12.7120859,1.38544209 12.2624035,1 11.7163606,1 L8.27950195,1 C7.73345899,1 7.28377655,1.38544209 7.20347612,1.89936487 L6.94651473,3.76233496 C6.62531299,3.90687574 6.32017134,4.0835367 5.9989696,4.29231783 L4.18417977,3.585674 C4.05569907,3.53749374 3.92721838,3.52143365 3.79873768,3.52143365 C3.4132956,3.52143365 3.04391359,3.7141547 2.86725264,4.05141652 L1.14882333,6.94223218 C0.875801855,7.39191461 0.988222463,7.98613783 1.40578472,8.30733957 L2.93149299,9.46366583 C2.9154329,9.65638687 2.89937281,9.83304783 2.89937281,9.9936487 C2.89937281,10.1542496 2.89937281,10.3309105 2.93149299,10.5236316 L1.40578472,11.6799578 C0.988222463,12.0011596 0.875801855,12.5632626 1.14882333,13.0450652 L2.85119255,15.9198208 C3.04391359,16.2570826 3.4132956,16.4658637 3.79873768,16.4658637 C3.92721838,16.4658637 4.03963899,16.4498037 4.16811968,16.4016234 L5.98290951,15.6949796 C6.28805116,15.9037607 6.6092529,16.0804217 6.93045464,16.2249624 L7.20347612,18.0718724 C7.26771647,18.5857952 7.73345899,18.9872974 8.27950195,18.9872974 L11.7163606,18.9872974 C12.2624035,18.9872974 12.7120859,18.6018553 12.7923864,18.0879325 L13.0654079,16.2249624 C13.3866096,16.0804217 13.6917513,15.9037607 14.012953,15.6949796 L15.8277428,16.4016234 C15.9562235,16.4498037 16.0847042,16.4658637 16.2131849,16.4658637 C16.598627,16.4658637 16.968009,16.2731427 17.1446699,15.9358809 L18.8630993,13.0290051 C19.1200606,12.5632626 19.00764,12.0011596 18.5900778,11.6799578 L18.5900778,11.6799578 Z M13.8523521,9.9936487 C13.8523521,12.1135802 12.1178627,13.8480696 9.99793125,13.8480696 C7.87799977,13.8480696 6.14351038,12.1135802 6.14351038,9.9936487 C6.14351038,7.87371722 7.87799977,6.13922783 9.99793125,6.13922783 C12.1178627,6.13922783 13.8523521,7.87371722 13.8523521,9.9936487 Z" id="形状" fill="#FFFFFF" fill-rule="nonzero"></path>
            </g>
        </g>
    </g>
</svg>