<?xml version="1.0" encoding="UTF-8"?>
<svg width="20px" height="20px" viewBox="0 0 20 20" version="1.1" xmlns="http://www.w3.org/2000/svg" xmlns:xlink="http://www.w3.org/1999/xlink">
    <title>rencaishenbao_down</title>
    <g id="人资工作台一期页面" stroke="none" stroke-width="1" fill="none" fill-rule="evenodd">
        <g id="菜单栏图标" transform="translate(-126.000000, -296.000000)">
            <g id="rencaishenbao_down" transform="translate(126.000000, 296.000000)">
                <rect id="矩形" fill="#D8D8D8" opacity="0" x="0" y="0" width="20" height="20"></rect>
                <path d="M3.43634033,19.0413223 L3.437,19.04 L3.31053056,19.0360618 C2.02045112,18.9523277 1,17.8794268 1,16.5681818 L1,8.33987603 C1,7.65695455 1.55361157,7.10330579 2.23657025,7.10330579 L4.45867769,7.10330579 L4.45867769,2.23140496 C4.45867769,0.99903719 5.45771488,0 6.69008264,0 L16.768595,0 C18.0009628,0 19,0.99903719 19,2.23140496 L19,14.5785124 C19,17.0432851 17.0019256,19.0413223 14.5371901,19.0413223 L3.43634033,19.0413223 Z M4.45867769,8.59090909 L2.48760331,8.59090909 L2.48760331,16.5681818 C2.48760331,17.1116033 2.92971901,17.553719 3.4731405,17.553719 C4.01656198,17.553719 4.45867769,17.1116033 4.45867769,16.5681818 L4.45867769,8.59090909 Z M10.5578512,11.231405 L8.40082645,11.231405 C7.99003614,11.231405 7.65702479,11.5644163 7.65702479,11.9752066 C7.65702479,12.3517644 7.93684682,12.6629662 8.29989697,12.7122182 L8.40082645,12.7190083 L10.5578512,12.7190083 C10.9686415,12.7190083 11.3016529,12.3859969 11.3016529,11.9752066 C11.3016529,11.5644163 10.9686415,11.231405 10.5578512,11.231405 Z M12.8636364,8.03305785 L8.40082645,8.03305785 C7.99003614,8.03305785 7.65702479,8.36606919 7.65702479,8.7768595 C7.65702479,9.15341729 7.93684682,9.46461913 8.29989697,9.51387112 L8.40082645,9.52066116 L12.8636364,9.52066116 C13.2744267,9.52066116 13.607438,9.18764981 13.607438,8.7768595 C13.607438,8.36606919 13.2744267,8.03305785 12.8636364,8.03305785 Z M15.0950413,4.83471074 L8.40082645,4.83471074 C7.99003614,4.83471074 7.65702479,5.16772209 7.65702479,5.5785124 C7.65702479,5.95507018 7.93684682,6.26627203 8.29989697,6.31552402 L8.40082645,6.32231405 L15.0950413,6.32231405 C15.5058316,6.32231405 15.838843,5.98930271 15.838843,5.5785124 C15.838843,5.16772209 15.5058316,4.83471074 15.0950413,4.83471074 Z" id="形状结合" fill="#FFFFFF" fill-rule="nonzero"></path>
            </g>
        </g>
    </g>
</svg>