<?xml version="1.0" encoding="UTF-8"?>
<svg width="20px" height="20px" viewBox="0 0 20 20" version="1.1" xmlns="http://www.w3.org/2000/svg" xmlns:xlink="http://www.w3.org/1999/xlink">
    <title>rencaishenbao_normal</title>
    <g id="人资工作台一期页面" stroke="none" stroke-width="1" fill="none" fill-rule="evenodd">
        <g id="菜单栏图标" transform="translate(-168.000000, -296.000000)">
            <g id="rencaishenbao_normal" transform="translate(168.000000, 296.000000)">
                <rect id="矩形" fill="#D8D8D8" opacity="0" x="0" y="0" width="20" height="20"></rect>
                <g id="契税申报" transform="translate(1.000000, 0.000000)" fill="#FFFFFF" fill-rule="nonzero">
                    <path d="M16.5123967,14.5785124 L16.5123967,2.23140496 C16.5123967,1.82127273 16.1787273,1.48760331 15.768595,1.48760331 L5.69008264,1.48760331 C5.27995041,1.48760331 4.94628099,1.82127273 4.94628099,2.23140496 L4.94628099,8.59090909 L1.73863636,8.59090909 C1.6000626,8.59107304 1.48776725,8.70336838 1.48760331,8.84194215 L1.48760331,15.5640496 C1.48760331,16.6554298 2.37533058,17.5479917 3.45867769,17.553719 L13.5371901,17.553719 C15.177719,17.553719 16.5123967,16.2190413 16.5123967,14.5785124 Z M13.5371901,19.0413223 L3.45867769,19.0413223 C1.54680992,19.031281 0,17.4782975 0,15.5640868 L0,8.84194215 C0,7.8817314 0.77838843,7.10330579 1.73863636,7.10330579 L3.45867769,7.10330579 L3.45867769,2.23140496 C3.45867769,0.99903719 4.45771488,0 5.69008264,0 L15.768595,0 C17.0009628,0 18,0.99903719 18,2.23140496 L18,14.5785124 C18,17.0432851 16.0019256,19.0413223 13.5371901,19.0413223 Z" id="形状"></path>
                    <path d="M1.48760331,16.5681818 C1.48760331,17.1116033 1.92971901,17.553719 2.4731405,17.553719 C3.01656198,17.553719 3.45867769,17.1116033 3.45867769,16.5681818 L3.45867769,8.59090909 L1.48760331,8.59090909 L1.48760331,16.5681818 Z M1.23657025,7.10330579 L3.70971074,7.10330579 C4.39266942,7.10330579 4.94628099,7.65695455 4.94628099,8.33987603 L4.94628099,16.5681818 C4.94628099,17.934062 3.83902066,19.0413223 2.4731405,19.0413223 C1.10726033,19.0413223 0,17.934062 0,16.5681818 L0,8.33987603 C0,7.65695455 0.55361157,7.10330579 1.23657025,7.10330579 Z" id="形状"></path>
                    <path d="M7.40082645,8.03305785 L11.8636364,8.03305785 C12.2744267,8.03305785 12.607438,8.36606919 12.607438,8.7768595 C12.607438,9.18764981 12.2744267,9.52066116 11.8636364,9.52066116 L7.40082645,9.52066116 C6.99003614,9.52066116 6.65702479,9.18764981 6.65702479,8.7768595 C6.65702479,8.36606919 6.99003614,8.03305785 7.40082645,8.03305785 Z" id="路径"></path>
                    <path d="M7.40082645,11.231405 L9.55785124,11.231405 C9.96864155,11.231405 10.3016529,11.5644163 10.3016529,11.9752066 C10.3016529,12.3859969 9.96864155,12.7190083 9.55785124,12.7190083 L7.40082645,12.7190083 C6.99003614,12.7190083 6.65702479,12.3859969 6.65702479,11.9752066 C6.65702479,11.5644163 6.99003614,11.231405 7.40082645,11.231405 Z" id="路径"></path>
                    <path d="M7.40082645,4.83471074 L14.0950413,4.83471074 C14.5058316,4.83471074 14.838843,5.16772209 14.838843,5.5785124 C14.838843,5.98930271 14.5058316,6.32231405 14.0950413,6.32231405 L7.40082645,6.32231405 C6.99003614,6.32231405 6.65702479,5.98930271 6.65702479,5.5785124 C6.65702479,5.16772209 6.99003614,4.83471074 7.40082645,4.83471074 Z" id="路径"></path>
                </g>
            </g>
        </g>
    </g>
</svg>