<?xml version="1.0" encoding="UTF-8"?>
<svg width="20px" height="20px" viewBox="0 0 20 20" version="1.1" xmlns="http://www.w3.org/2000/svg" xmlns:xlink="http://www.w3.org/1999/xlink">
    <title>ruzhiguanli_normal</title>
    <g id="人资工作台一期页面" stroke="none" stroke-width="1" fill="none" fill-rule="evenodd">
        <g id="菜单栏图标" transform="translate(-168.000000, -147.000000)">
            <g id="ruzhiguanli_normal" transform="translate(168.000000, 147.000000)">
                <rect id="矩形" fill="#D8D8D8" opacity="0" x="0" y="0" width="20" height="20"></rect>
                <path d="M11.0989654,8.00498915 L7.65272009,7.99998914 L3.93161252,14.6712301 L9.32521784,18.0837255 L16.1313091,13.6729705 L16.4414073,14.5219781 C16.6196319,15.0326953 16.4662801,15.6004444 16.0551578,15.9519762 L10.2452166,19.6587233 C9.71247718,20.1165911 8.92422863,20.1133955 8.3952191,19.6512233 L2.45161454,15.8037286 C2.0456258,15.4515237 1.89596305,14.8870672 2.07411505,14.3799805 L6.02522231,7.20249024 C6.21647204,6.66124099 6.70022138,6.39124132 7.29147061,6.39124132 L11.426465,6.40374133 C12.0177142,6.40374133 12.5064635,6.66124099 12.6989633,7.20249024 L15.3853239,12.1846621 L14.0170513,13.092594 L11.0989654,8.00498915 Z M11.5777148,1.78374758 L7.14522081,1.78374758 L7.63272015,3.28749553 L11.0902155,3.28749553 L11.5777148,1.78374758 L11.5777148,1.78374758 Z M12.2064639,0 C13.1764626,0 13.8439617,0.943748733 13.4952122,1.81999753 L12.7189633,4.21624429 C12.5139635,4.73124361 12.0164642,4.80374349 11.446465,4.80374349 L7.28397061,4.79499351 C6.71397137,4.79499351 6.15022215,4.65999371 5.94522243,4.14499439 L5.22772341,1.81999753 C4.87772386,0.943748733 5.54522297,0 6.51522163,0 L12.2064639,0 Z" id="形状" fill="#FFFFFF" fill-rule="nonzero"></path>
            </g>
        </g>
    </g>
</svg>