<?xml version="1.0" encoding="UTF-8"?>
<svg width="20px" height="20px" viewBox="0 0 20 20" version="1.1" xmlns="http://www.w3.org/2000/svg" xmlns:xlink="http://www.w3.org/1999/xlink">
    <title>ruzhiguanli_down</title>
    <g id="人资工作台一期页面" stroke="none" stroke-width="1" fill="none" fill-rule="evenodd">
        <g id="菜单栏图标" transform="translate(-126.000000, -147.000000)">
            <g id="ruzhiguanli_down" transform="translate(126.000000, 147.000000)">
                <rect id="矩形" fill="#D8D8D8" opacity="0" x="0" y="0" width="20" height="20"></rect>
                <path d="M17.1130325,13.7078283 L17.4414073,14.5219781 C17.6196319,15.0326953 17.4662801,15.6004444 17.0551578,15.9519762 L11.2452166,19.6587233 C10.7124772,20.1165911 9.92422863,20.1133955 9.3952191,19.6512233 L3.45161454,15.8037286 C3.0456258,15.4515237 2.89596305,14.8870672 3.07411505,14.3799805 L7.02522231,7.20249024 C7.21647204,6.66124099 7.70022138,6.39124132 8.29147061,6.39124132 L12.426465,6.40374133 C13.0177142,6.40374133 13.5064635,6.66124099 13.6989633,7.20249024 L17.116525,13.7125755 L17.1130325,13.7078283 Z M13.2064639,0 C14.1764626,0 14.8439617,0.943748733 14.4952122,1.81999753 L13.7189633,4.21624429 C13.5139635,4.73124361 13.0164642,4.80374349 12.446465,4.80374349 L8.28397061,4.79499351 C7.71397137,4.79499351 7.15022215,4.65999371 6.94522243,4.14499439 L6.22772341,1.81999753 C5.87772386,0.943748733 6.54522297,0 7.51522163,0 L13.2064639,0 Z" id="形状" fill="#FFFFFF" fill-rule="nonzero"></path>
            </g>
        </g>
    </g>
</svg>