<?xml version="1.0" encoding="UTF-8"?>
<svg width="20px" height="20px" viewBox="0 0 20 20" version="1.1" xmlns="http://www.w3.org/2000/svg" xmlns:xlink="http://www.w3.org/1999/xlink">
    <title>zhongxinyonggong_normal</title>
    <g id="人资工作台一期页面" stroke="none" stroke-width="1" fill="none" fill-rule="evenodd">
        <g id="菜单栏图标" transform="translate(-168.000000, -198.000000)">
            <g id="zhongxinyonggong_normal" transform="translate(168.000000, 198.000000)">
                <rect id="矩形" fill="#D8D8D8" opacity="0" x="0" y="0" width="20" height="20"></rect>
                <path d="M6.67842786,11.0501693 C7.0185373,10.81042 7.48757072,10.8931906 7.72742299,11.2334461 C7.96717227,11.5735556 7.88440166,12.042589 7.53591968,12.287999 L7.38770204,12.3865699 L7.18620644,12.5136125 L7.06561763,12.5868379 C6.71534819,12.7968909 6.32911631,13.0048311 5.91275667,13.1992366 C5.30578217,13.4826435 4.68452214,13.7137171 4.08151438,13.8676478 C3.51947236,14.0678602 3.31596695,14.5468722 3.26461984,15.518206 L3.25252963,15.8178222 C3.24688378,16.0718856 3.26078185,16.3926541 3.28775958,16.6480859 L3.307,16.802 L3.38101426,16.8427271 C3.75091172,17.0376112 4.21226234,17.24118 4.75473319,17.4325266 L5.0326808,17.5270846 L5.32386142,17.6190249 C6.62957555,18.0156838 8.07937425,18.2454978 9.65476525,18.2454978 C11.2369929,18.2454978 12.6881313,18.0163586 13.9908372,17.6208749 C14.6841431,17.4103968 15.2710767,17.1736462 15.7346988,16.9442251 L15.997,16.807 L16.0026335,16.7782583 C16.0236385,16.6223479 16.0390383,16.4242779 16.0475789,16.2271678 L16.0537866,16.0319746 L16.055143,15.8470034 L16.0504439,15.7913149 L16.0496035,15.7304988 C16.0153774,14.6157062 15.8238009,14.0849344 15.2459472,13.8780004 C13.8089584,13.5086539 12.5474961,12.8408775 11.7616577,12.286168 C11.4214021,12.0463157 11.3386315,11.5772823 11.5783808,11.2371728 C11.8182331,10.8969173 12.2872665,10.8141467 12.6333367,11.0582307 C13.1091773,11.4151112 14.2448972,12.0234262 15.4064848,12.3616119 L15.6944621,12.4414865 C16.5591929,12.7363717 17.0858572,13.3532975 17.3466365,14.1953141 C17.4731605,14.6038405 17.5206461,14.9518318 17.5433907,15.4567008 L17.5556969,15.786181 C17.567839,16.4263432 17.5209318,17.1439222 17.3601513,17.571578 C17.3044818,17.7163188 17.200793,17.8404533 17.0667891,17.9278206 C16.6495522,18.1920707 16.0240075,18.5102034 15.0973828,18.8415697 C13.512507,19.4083305 11.6911287,19.7479823 9.65849196,19.7479823 C7.66166725,19.7479823 5.8668412,19.4205102 4.29926107,18.8711823 L4.06240409,18.7858935 L3.62072552,18.614007 C2.99160218,18.3565302 2.51683149,18.1056284 2.25145806,17.9286154 C2.11643124,17.8442236 2.01373267,17.7195182 1.95769259,17.5737828 C1.83461637,17.262609 1.77465363,16.8000904 1.75568438,16.2705611 L1.75000002,16.0397631 L1.75394945,15.6816759 C1.77333343,15.045235 1.81511149,14.656183 1.96122796,14.1877324 C2.20267393,13.4136546 2.66952408,12.829834 3.41953897,12.5112782 L3.64326878,12.4276651 L3.66778488,12.4208859 C4.90088033,12.1078484 6.1543935,11.4430592 6.67842786,11.0501693 Z M9.69698186,0.251757985 C10.4874508,0.267410835 11.2038435,0.455725474 11.8211483,0.810178267 C12.8746834,1.41292191 13.5917315,2.48776315 13.7347652,4.10771778 L13.7532484,4.38277009 C13.800489,4.86192394 13.807859,5.52011642 13.7152437,6.25844601 C13.5666274,7.44321453 13.1920815,8.47169272 12.521173,9.22798949 C11.9239657,9.90027434 11.144882,10.2992043 10.2044941,10.4146438 L9.96604851,10.4375918 L9.70693916,10.4486034 L9.58341891,10.4486034 C8.42436108,10.4287879 7.47372325,10.0166091 6.77706336,9.22786108 C6.10626885,8.47169272 5.73172294,7.44321453 5.58310672,6.25844601 C5.49049137,5.52011642 5.49786141,4.86192394 5.54416617,4.3956729 C5.62788771,2.59733418 6.37363006,1.43329726 7.5000106,0.79501556 C8.06241842,0.474792925 8.67091774,0.313348449 9.26803837,0.266334093 L9.52308301,0.253061715 L9.69698186,0.251757985 Z M9.6641179,1.76158517 L9.62495159,1.76158517 C8.24584635,1.76158517 7.21308821,2.43543996 7.05677043,4.25552883 L7.03552522,4.5415665 C6.88358387,5.45321459 7.07635364,7.30380433 7.9008025,8.22968992 C8.23687863,8.6114724 8.6668417,8.83640114 9.21017076,8.91261908 L9.41927124,8.93424589 L9.66368302,8.94240245 C10.4186879,8.93556983 10.9773109,8.70328734 11.3982901,8.22885055 C12.2250368,7.29811056 12.403858,5.55536137 12.2820901,4.61227015 L12.2517727,4.50256973 C12.250125,4.49288535 12.2509148,4.48883028 12.2522311,4.48207183 C12.1638007,2.54801258 11.147801,1.7945559 9.6641179,1.76158517 Z" id="形状结合" fill="#FFFFFF" fill-rule="nonzero"></path>
            </g>
        </g>
    </g>
</svg>