<?xml version="1.0" standalone="no"?><!DOCTYPE svg PUBLIC "-//W3C//DTD SVG 1.1//EN" "http://www.w3.org/Graphics/SVG/1.1/DTD/svg11.dtd"><svg t="1648904867694" class="icon" viewBox="0 0 1024 1024" version="1.1" xmlns="http://www.w3.org/2000/svg" p-id="2829" xmlns:xlink="http://www.w3.org/1999/xlink" width="200" height="200"><defs><style type="text/css">@font-face { font-family: feedback-iconfont; src: url("//at.alicdn.com/t/font_1031158_u69w8yhxdu.woff2?t=1630033759944") format("woff2"), url("//at.alicdn.com/t/font_1031158_u69w8yhxdu.woff?t=1630033759944") format("woff"), url("//at.alicdn.com/t/font_1031158_u69w8yhxdu.ttf?t=1630033759944") format("truetype"); }
</style></defs><path d="M267.751619 276.48a38.66819 38.66819 0 0 1-17.651809 47.981714l-4.388572 2.048c-39.204571 15.164952-101.522286 93.769143-128.390095 177.980953-34.767238 109.080381-13.312 214.211048 78.994286 302.811428 168.423619 161.54819 385.219048 104.057905 490.057142-35.254857a38.570667 38.570667 0 1 1 61.68381 46.470095c-129.609143 172.227048-397.897143 243.370667-605.135238 44.519619C28.135619 753.030095 0.390095 616.935619 43.739429 481.03619c33.401905-104.69181 110.494476-201.97181 174.031238-226.596571a38.570667 38.570667 0 0 1 49.93219 22.089143zM425.935238 0c78.311619 0 144.237714 59.879619 153.307429 139.312762 9.020952 79.384381-41.593905 153.112381-117.857524 171.495619v50.371048h199.875047c22.77181 4.096 34.230857 16.579048 34.474667 37.400381 0.195048 20.821333-11.312762 32.475429-34.474667 34.962285H461.385143v100.156953c0 2.681905 2.145524 4.87619 4.729905 4.87619h185.002666a48.761905 48.761905 0 0 1 34.816 14.57981l114.297905 116.540952 71.338667-72.752762c15.896381-9.264762 30.524952-8.094476 43.885714 3.559619 13.409524 11.654095 15.457524 27.501714 6.290286 47.591619l-86.796191 88.454095-0.633905 0.682667a48.761905 48.761905 0 0 1-68.949333-0.682667l-108.885333-111.030857a48.761905 48.761905 0 0 0-34.816-14.628571H466.16381c-41.74019 0-75.580952-34.57219-75.678477-77.190095v-222.841905c-76.214857-18.383238-126.878476-92.16-117.808762-171.544381C281.697524 59.879619 347.574857 0 425.935238 0z" p-id="2830"></path></svg>