<?xml version="1.0" standalone="no"?><!DOCTYPE svg PUBLIC "-//W3C//DTD SVG 1.1//EN" "http://www.w3.org/Graphics/SVG/1.1/DTD/svg11.dtd"><svg t="1648904857185" class="icon" viewBox="0 0 1024 1024" version="1.1" xmlns="http://www.w3.org/2000/svg" p-id="2430" xmlns:xlink="http://www.w3.org/1999/xlink" width="200" height="200"><defs><style type="text/css">@font-face { font-family: feedback-iconfont; src: url("//at.alicdn.com/t/font_1031158_u69w8yhxdu.woff2?t=1630033759944") format("woff2"), url("//at.alicdn.com/t/font_1031158_u69w8yhxdu.woff?t=1630033759944") format("woff"), url("//at.alicdn.com/t/font_1031158_u69w8yhxdu.ttf?t=1630033759944") format("truetype"); }
</style></defs><path d="M951.808 598.016l-78.1312-59.1872c0.8192-8.2432 1.6384-17.3056 1.6384-27.136 0-9.8816-0.8192-18.944-1.6384-27.136l78.1312-59.2384c21.4016-16.384 27.136-45.2096 13.1584-69.888l-87.1424-147.2a56.32 56.32 0 0 0-67.4304-24.6272l-92.928 36.1472a315.392 315.392 0 0 0-48.5376-27.136l-13.9776-94.5664c-4.096-27.136-27.136-46.848-55.0912-46.848H423.936c-28.0064 0-50.9952 19.712-55.1424 46.08l-13.1072 95.3344a359.168 359.168 0 0 0-48.5376 27.136l-92.928-36.1472A55.296 55.296 0 0 0 194.56 180.224c-19.7632 0-38.656 9.8816-47.7184 27.136L58.88 355.4304c-13.9776 23.04-8.192 53.4528 13.1584 69.888L150.016 484.5568c-0.8192 9.8304-1.6384 18.8928-1.6384 27.136 0 8.192 0 17.2544 1.6384 27.136L71.9872 598.016c-21.4016 16.4352-27.136 45.2096-13.1584 69.888L145.92 815.104a56.32 56.32 0 0 0 67.4304 24.6784l92.928-36.1984c15.616 10.7008 32.0512 19.712 48.4864 27.136l13.9776 94.5664c3.328 26.3168 27.136 46.848 55.1424 46.848h175.9232c27.9552 0 50.9952-19.712 55.0912-46.08l13.9776-95.3344c16.4864-7.424 32.1024-16.4352 48.5376-27.136l92.928 36.1984c6.5536 2.4576 13.1584 3.2768 19.712 3.2768 19.7632 0 38.656-9.8816 47.7184-27.136l87.9616-148.8384a53.504 53.504 0 0 0-13.9776-69.0688z m-242.5856-86.3232a197.9392 197.9392 0 0 1-197.3248 197.3248 197.9392 197.9392 0 0 1-197.3248-197.3248 197.9392 197.9392 0 0 1 197.3248-197.376 197.9392 197.9392 0 0 1 197.3248 197.376z" p-id="2431"></path></svg>