<?xml version="1.0" standalone="no"?><!DOCTYPE svg PUBLIC "-//W3C//DTD SVG 1.1//EN" "http://www.w3.org/Graphics/SVG/1.1/DTD/svg11.dtd"><svg t="1648904843632" class="icon" viewBox="0 0 1024 1024" version="1.1" xmlns="http://www.w3.org/2000/svg" p-id="1896" xmlns:xlink="http://www.w3.org/1999/xlink" width="200" height="200"><defs><style type="text/css">@font-face { font-family: feedback-iconfont; src: url("//at.alicdn.com/t/font_1031158_u69w8yhxdu.woff2?t=1630033759944") format("woff2"), url("//at.alicdn.com/t/font_1031158_u69w8yhxdu.woff?t=1630033759944") format("woff"), url("//at.alicdn.com/t/font_1031158_u69w8yhxdu.ttf?t=1630033759944") format("truetype"); }
</style></defs><path d="M896.6144 746.4448V114.176a38.144 38.144 0 0 0-38.0416-38.0416H342.528a38.144 38.144 0 0 0-38.0928 38.0416v325.632H140.288a12.8512 12.8512 0 0 0-12.8512 12.8v344.2176c0 55.8592 45.4144 101.5808 100.864 101.888h516.096a152.5248 152.5248 0 0 0 152.2688-152.32z m-152.32 228.4544H228.352A178.0224 178.0224 0 0 1 51.2 796.8768V452.7104c0-49.152 39.8336-89.0368 89.0368-89.0368h88.064V114.2272C228.3008 51.2 279.4496 0 342.528 0H858.624C921.6 0 972.8 51.1488 972.8 114.2272V746.496a228.5056 228.5056 0 0 1-228.5056 228.4544z" p-id="1897"></path><path d="M127.3856 848.2816a50.5344 50.5344 0 0 0 100.864 0V439.8592h-100.864v408.4224z m-12.8512-484.608H241.152c34.9696 0 63.2832 28.3648 63.2832 63.3344v421.2736a126.6176 126.6176 0 1 1-253.2352 0V427.008c0-34.9696 28.3648-63.3344 63.3344-63.3344zM430.08 411.2896h228.5568a38.0928 38.0928 0 0 1 0 76.1856H430.08a38.0928 38.0928 0 0 1 0-76.1856zM430.08 575.0272h110.4896a38.0928 38.0928 0 1 1 0 76.1856H430.08a38.0928 38.0928 0 0 1 0-76.1856zM430.08 247.552h342.784a38.0928 38.0928 0 0 1 0 76.1344H430.1312a38.0928 38.0928 0 1 1 0-76.1344z" p-id="1898"></path></svg>