<?xml version="1.0" standalone="no"?><!DOCTYPE svg PUBLIC "-//W3C//DTD SVG 1.1//EN" "http://www.w3.org/Graphics/SVG/1.1/DTD/svg11.dtd"><svg t="1648904850730" class="icon" viewBox="0 0 1024 1024" version="1.1" xmlns="http://www.w3.org/2000/svg" p-id="2164" xmlns:xlink="http://www.w3.org/1999/xlink" width="200" height="200"><defs><style type="text/css">@font-face { font-family: feedback-iconfont; src: url("//at.alicdn.com/t/font_1031158_u69w8yhxdu.woff2?t=1630033759944") format("woff2"), url("//at.alicdn.com/t/font_1031158_u69w8yhxdu.woff?t=1630033759944") format("woff"), url("//at.alicdn.com/t/font_1031158_u69w8yhxdu.ttf?t=1630033759944") format("truetype"); }
</style></defs><path d="M876.1856 701.8496l16.7936 41.6768c9.1648 26.112 1.28 55.1936-19.7632 73.216l-297.472 189.7984a72.2944 72.2944 0 0 1-94.72-0.4096l-304.2816-196.9664a67.072 67.072 0 0 1-19.3536-72.9088l202.2912-367.5136c9.7792-27.648 34.56-41.472 64.8192-41.472l211.712 0.6144c30.3104 0 55.296 13.1584 65.1776 40.8576l175.0016 333.312-0.2048-0.2048zM676.1472 0c49.664 0 83.8656 48.3328 66.048 93.184l-39.7824 122.6752c-10.496 26.368-35.9936 30.1056-65.1776 30.1056l-213.0944-0.4608c-29.184 0-58.0608-6.912-68.5568-33.28L318.8736 93.184C300.9536 48.3328 335.104 0 384.768 0h291.3792z" p-id="2165"></path></svg>