<?xml version="1.0" standalone="no"?><!DOCTYPE svg PUBLIC "-//W3C//DTD SVG 1.1//EN" "http://www.w3.org/Graphics/SVG/1.1/DTD/svg11.dtd"><svg t="1648904840611" class="icon" viewBox="0 0 1024 1024" version="1.1" xmlns="http://www.w3.org/2000/svg" p-id="1763" xmlns:xlink="http://www.w3.org/1999/xlink" width="200" height="200"><defs><style type="text/css">@font-face { font-family: feedback-iconfont; src: url("//at.alicdn.com/t/font_1031158_u69w8yhxdu.woff2?t=1630033759944") format("woff2"), url("//at.alicdn.com/t/font_1031158_u69w8yhxdu.woff?t=1630033759944") format("woff"), url("//at.alicdn.com/t/font_1031158_u69w8yhxdu.ttf?t=1630033759944") format("truetype"); }
</style></defs><path d="M398.848 548.864l8.4992 0.4096 197.12 0.2048c24.9856-1.7408 43.3664 1.536 55.1936 9.8816 26.112 19.5584 90.9824 53.9136 154.7264 70.1952l11.264 4.096c38.8096 16.1792 62.976 46.2848 75.3152 86.3232 7.424 23.9104 9.5232 43.7248 10.5472 76.6464l0.256 17.2544c-0.1536 29.2864-2.9184 59.8016-10.0864 78.9504a38.4 38.4 0 0 1-15.0528 18.2272c-21.3504 13.568-53.3504 29.8496-100.8128 46.7968-81.152 29.0304-174.3872 46.3872-278.4768 46.3872-102.2464 0-194.1504-16.7424-274.432-44.8512-24.7296-8.704-46.4384-17.7664-64.1536-26.112l-16.384-8.1408a267.1616 267.1616 0 0 1-24.2688-14.0288 37.1712 37.1712 0 0 1-15.0528-18.176c-7.168-18.176-10.1888-46.5408-10.5984-78.4896L102.4 804.608l0.256-8.5504 1.024-22.3232c1.3312-20.48 3.9424-36.1472 9.5744-54.1696 13.3632-42.9056 40.3456-74.4448 84.5824-89.6l15.4112-4.3008c58.88-17.0496 116.48-47.9232 141.5168-66.7136 11.6224-8.192 29.184-11.4176 52.5824-9.6768zM509.0816 18.8416c38.5024 0.768 73.0624 9.9328 102.656 26.9312 39.68 22.6816 87.7568 71.3216 92.5184 173.056 1.3312 13.5168 13.568 155.4944-59.904 238.2848-33.3824 37.632-78.592 57.2416-134.5024 58.2144h-6.144c-55.9104-0.9728-101.12-20.5824-134.2976-58.2144-73.472-82.7904-61.2864-224.768-59.904-238.2848 4.7616-102.4512 53.6064-151.1424 93.696-173.824 39.8336-22.7328 81.408-26.112 102.6048-26.112z" p-id="1764"></path></svg>