<?xml version="1.0" standalone="no"?><!DOCTYPE svg PUBLIC "-//W3C//DTD SVG 1.1//EN" "http://www.w3.org/Graphics/SVG/1.1/DTD/svg11.dtd"><svg t="1648904829916" class="icon" viewBox="0 0 1024 1024" version="1.1" xmlns="http://www.w3.org/2000/svg" p-id="1364" xmlns:xlink="http://www.w3.org/1999/xlink" width="200" height="200"><defs><style type="text/css">@font-face { font-family: feedback-iconfont; src: url("//at.alicdn.com/t/font_1031158_u69w8yhxdu.woff2?t=1630033759944") format("woff2"), url("//at.alicdn.com/t/font_1031158_u69w8yhxdu.woff?t=1630033759944") format("woff"), url("//at.alicdn.com/t/font_1031158_u69w8yhxdu.ttf?t=1630033759944") format("truetype"); }
</style></defs><path d="M341.9136 565.76a38.5536 38.5536 0 1 1 43.9296 63.3856l-7.5776 5.0688-10.3424 6.5024-6.144 3.7376c-17.92 10.752-37.7344 21.4016-59.0336 31.3344-31.0784 14.5408-62.8736 26.368-93.7472 34.2528-28.8256 10.24-39.2192 34.7648-41.8304 84.48l-0.6144 15.36c-0.3072 13.0048 0.4096 29.44 1.792 42.496l0.9728 7.8848 3.7888 2.048c18.944 10.0352 42.5472 20.48 70.3488 30.208l14.2336 4.864 14.848 4.7104c66.9184 20.3264 141.1072 32.0512 221.7984 32.0512 80.9984 0 155.2896-11.7248 222.0032-31.9488 35.4816-10.752 65.536-22.8864 89.2928-34.6624l13.4144-7.0144 0.3072-1.4848c1.024-7.9872 1.8432-18.1248 2.304-28.16l0.3072-10.0352 0.0512-9.472-0.256-2.8672v-3.072c-1.792-57.088-11.5712-84.2752-41.1648-94.8736a568.7296 568.7296 0 0 1-178.3808-81.5104 38.5536 38.5536 0 1 1 44.5952-62.8736c24.3712 18.2784 82.5344 49.408 141.9776 66.7648l14.7456 4.096c44.288 15.0528 71.2704 46.6432 84.6336 89.7536 6.4512 20.9408 8.9088 38.7584 10.0352 64.6144l0.6656 16.896c0.6144 32.768-1.792 69.4784-10.0352 91.392a38.4 38.4 0 0 1-15.0016 18.2272c-21.3504 13.5168-53.4016 29.7984-100.864 46.7968-81.1008 28.9792-174.3872 46.3872-278.4768 46.3872-102.1952 0-194.0992-16.7424-274.3808-44.9024l-12.1344-4.352-22.5792-8.8064c-32.256-13.1584-56.5248-26.0096-70.144-35.072a37.1712 37.1712 0 0 1-15.0016-18.176c-6.2976-15.9232-9.3696-39.6288-10.3424-66.7136l-0.3072-11.8272 0.2048-18.3296c1.024-32.6144 3.1232-52.5312 10.5984-76.4928 12.3904-39.6288 36.3008-69.5296 74.7008-85.8624l11.4176-4.2496 1.28-0.3584c63.1296-16.0256 127.2832-50.0736 154.112-70.144zM496.4864 12.9024c40.448 0.768 77.1584 10.4448 108.7488 28.5696 53.9648 30.8736 90.624 85.9136 97.9968 168.8576l0.9216 14.08c2.4064 24.5248 2.816 58.2144-1.9456 96-7.5776 60.672-26.7776 113.3568-61.1328 152.064-30.5664 34.4064-70.4512 54.8352-118.6304 60.7744l-12.1856 1.1776-13.312 0.512h-6.2976c-59.3408-1.024-108.032-22.0672-143.6672-62.464-34.304-38.7072-53.504-91.392-61.1328-152.064a440.6272 440.6272 0 0 1-1.9968-95.3344c4.3008-92.1088 42.496-151.7056 100.1472-184.3712A216.4224 216.4224 0 0 1 474.5216 13.6192l13.056-0.6656 8.9088-0.0512z m-1.6896 77.312h-1.9968c-70.656 0-123.4944 34.4576-131.4816 127.6928l-1.0752 14.6432c-7.7824 46.6432 2.048 141.4144 44.288 188.8256 17.2032 19.5072 39.2192 31.0272 67.072 34.9696l10.6496 1.0752 12.544 0.4096c38.656-0.3072 67.2256-12.2368 88.7808-36.5056 42.3424-47.616 51.5072-136.9088 45.2608-185.1904l-1.536-5.632c-0.1024-0.512-0.0512-0.6656 0-1.024-4.5056-99.0208-56.5248-137.5744-132.5056-139.264z" p-id="1365"></path></svg>