<?xml version="1.0" standalone="no"?><!DOCTYPE svg PUBLIC "-//W3C//DTD SVG 1.1//EN" "http://www.w3.org/Graphics/SVG/1.1/DTD/svg11.dtd"><svg t="1648904870366" class="icon" viewBox="0 0 1024 1024" version="1.1" xmlns="http://www.w3.org/2000/svg" p-id="2962" xmlns:xlink="http://www.w3.org/1999/xlink" width="200" height="200"><defs><style type="text/css">@font-face { font-family: feedback-iconfont; src: url("//at.alicdn.com/t/font_1031158_u69w8yhxdu.woff2?t=1630033759944") format("woff2"), url("//at.alicdn.com/t/font_1031158_u69w8yhxdu.woff?t=1630033759944") format("woff"), url("//at.alicdn.com/t/font_1031158_u69w8yhxdu.ttf?t=1630033759944") format("truetype"); }
</style></defs><path d="M885.9648 626.7904l-74.9056 76.4416-119.9616-122.4192a51.2 51.2 0 0 0-36.608-15.36H460.288a5.0176 5.0176 0 0 1-4.9664-5.12V455.2704h209.8688c24.32-2.56 36.352-14.848 36.1472-36.7104-0.2048-21.8624-12.288-34.9696-36.1472-39.2704h-209.92V326.3488c80.0768-19.2512 133.2736-96.7168 123.7504-180.0704C569.5488 62.8736 500.3264 0 418.048 0 335.872 0 266.5984 62.8736 257.0752 146.2784c-9.472 83.3536 43.7248 160.768 123.7504 180.0704v234.0352c0.0512 44.7488 35.6352 80.9984 79.4624 81.0496h163.328a51.2 51.2 0 0 1 36.5568 15.36l114.2784 116.5824a51.2 51.2 0 0 0 73.1648 0l91.0336-92.8768c9.728-21.0944 7.5264-37.7344-6.5536-49.9712-14.0288-12.288-29.3888-13.5168-46.08-3.7376z m-423.936 68.6592c-42.2912 0-74.9056-11.264-97.024-33.3824-35.84-35.9424-35.6864-91.2384-35.6864-91.5456V370.5344l-19.3536-10.9568c-43.52-24.6784-82.0224-73.9328-82.432-74.3936L205.1584 256l-30.1568 21.248a409.6 409.6 0 0 0-155.392 460.288C74.24 908.288 233.984 1024.1536 414.3104 1024c138.3424 0 250.624-55.296 333.824-164.1984l19.8656-26.0096-135.0656-138.3424H461.9776z" p-id="2963"></path></svg>