<?xml version="1.0" encoding="UTF-8"?>
<svg width="20px" height="20px" viewBox="0 0 20 20" version="1.1" xmlns="http://www.w3.org/2000/svg" xmlns:xlink="http://www.w3.org/1999/xlink">
    <title>home_normal</title>
    <g id="人资工作台一期页面" stroke="none" stroke-width="1" fill="none" fill-rule="evenodd">
        <g id="菜单栏图标" transform="translate(-168.000000, -101.000000)">
            <g id="home_normal" transform="translate(168.000000, 101.000000)">
                <rect id="矩形" fill="#D8D8D8" opacity="0" x="0" y="0" width="20" height="20"></rect>
                <path d="M17.1995962,8.43978561 L17.2257109,8.54462737 L17.2342308,8.65085965 L17.2342308,16.5474561 C17.2342308,16.8605731 17.0321557,17.131515 16.7285167,17.229597 L16.6236799,17.2557095 L16.5174589,17.2642281 L11.8497747,17.2642281 C11.508635,17.2642281 11.2209626,17.0249738 11.1501654,16.7021669 L11.1355959,16.602974 L11.133494,16.5664481 L11.1330027,12.025 C11.1330027,11.3908476 10.6166729,10.8745088 9.98251152,10.8745088 C9.43193606,10.8745088 8.9648483,11.2655703 8.85663573,11.7811536 L8.83815951,11.9022235 L8.83202029,12.025 L8.82945335,16.6030589 C8.8069957,16.893822 8.61109835,17.1378586 8.32701418,17.2294795 L8.21651538,17.2564865 L8.11524836,17.2642281 L3.44756415,17.2642281 C3.13447013,17.2642281 2.86351734,17.062149 2.76542732,16.7585152 L2.73931228,16.6536806 L2.73079222,16.5474561 L2.73079222,8.65085965 C2.73079222,8.25500732 3.05173024,7.93405263 3.44756415,7.93405263 C3.76065877,7.93405263 4.03161163,8.13615438 4.12970119,8.4397972 L4.15581604,8.54463431 L4.16433608,8.65085965 L4.164,15.83 L7.398,15.83 L7.39847643,12.0249649 C7.39847643,10.7118469 8.38261475,9.6245951 9.65216316,9.46193787 L9.81931759,9.44602258 L9.98251152,9.44092982 C11.2851392,9.44092982 12.3746808,10.4124913 12.5441763,11.6887997 L12.5610086,11.8569482 L12.5665466,12.0249649 L12.566,15.83 L15.8,15.83 L15.8006519,8.65082456 C15.8006519,8.32424712 16.0190897,8.04866956 16.3178104,7.96221885 L16.4201679,7.94059612 C16.8743935,8.07095378 17.134203,8.23735027 17.1995962,8.43978561 Z M9.55907844,0.888463477 C9.7425989,0.754059652 9.97620564,0.716408238 10.1887281,0.780267784 L10.2929027,0.820678834 L10.4059203,0.888445699 L18.9215836,7.12343855 C19.2409964,7.35734049 19.3103526,7.80587301 19.0764493,8.12516013 C18.9398051,8.3118269 18.7245281,8.41858631 18.4977396,8.41858631 C18.4136069,8.41858631 18.3301581,8.40381074 18.243631,8.37057525 L18.1559384,8.33104291 L18.0746816,8.28008054 L9.982,2.354 L1.8902573,8.28012588 C1.63217516,8.46906099 1.28976631,8.46004802 1.04443498,8.28110602 L0.957340546,8.20609207 L0.888493925,8.12523001 C0.705774454,7.87571123 0.706437928,7.5429367 0.886693631,7.2856861 L0.962700502,7.19306742 L1.04338421,7.12342757 L9.55907844,0.888463477 Z" id="形状结合" fill="#FFFFFF" fill-rule="nonzero"></path>
            </g>
        </g>
    </g>
</svg>