<?xml version="1.0" standalone="no"?><!DOCTYPE svg PUBLIC "-//W3C//DTD SVG 1.1//EN" "http://www.w3.org/Graphics/SVG/1.1/DTD/svg11.dtd"><svg t="1648904864590" class="icon" viewBox="0 0 1024 1024" version="1.1" xmlns="http://www.w3.org/2000/svg" p-id="2696" xmlns:xlink="http://www.w3.org/1999/xlink" width="200" height="200"><defs><style type="text/css">@font-face { font-family: feedback-iconfont; src: url("//at.alicdn.com/t/font_1031158_u69w8yhxdu.woff2?t=1630033759944") format("woff2"), url("//at.alicdn.com/t/font_1031158_u69w8yhxdu.woff?t=1630033759944") format("woff"), url("//at.alicdn.com/t/font_1031158_u69w8yhxdu.ttf?t=1630033759944") format("truetype"); }
</style></defs><path d="M496.9984 107.008a23.9104 23.9104 0 0 1 28.2112 0l436.0192 319.232a23.9104 23.9104 0 1 1-28.2624 38.5536l-63.3856-46.3872v480c0 11.776-8.448 21.504-19.6096 23.552l-4.3008 0.3584H606.72a23.9104 23.9104 0 0 1-23.9104-23.9104v-231.5264c0-39.5264-32.1536-71.68-71.68-71.68-39.5776 0-71.7312 32.1536-71.7312 71.68v231.5264c0 0.7168 0 1.3312-0.1024 1.8944a23.9104 23.9104 0 0 1-23.808 22.016H176.5376a23.9104 23.9104 0 0 1-23.9104-23.9104L152.576 418.4064l-63.3344 46.3872a23.9104 23.9104 0 0 1-30.5664-1.8944l-2.8672-3.2256a23.9104 23.9104 0 0 1 5.1712-33.4336z" p-id="2697"></path></svg>