<?xml version="1.0" standalone="no"?><!DOCTYPE svg PUBLIC "-//W3C//DTD SVG 1.1//EN" "http://www.w3.org/Graphics/SVG/1.1/DTD/svg11.dtd"><svg t="1648904837630" class="icon" viewBox="0 0 1024 1024" version="1.1" xmlns="http://www.w3.org/2000/svg" p-id="1630" xmlns:xlink="http://www.w3.org/1999/xlink" width="200" height="200"><defs><style type="text/css">@font-face { font-family: feedback-iconfont; src: url("//at.alicdn.com/t/font_1031158_u69w8yhxdu.woff2?t=1630033759944") format("woff2"), url("//at.alicdn.com/t/font_1031158_u69w8yhxdu.woff?t=1630033759944") format("woff"), url("//at.alicdn.com/t/font_1031158_u69w8yhxdu.ttf?t=1630033759944") format("truetype"); }
</style></defs><path d="M599.8592 51.2c25.8048 0 47.4112 16.7936 53.8112 40.7552l1.28 6.144 13.9776 94.5152c12.3392 5.5808 24.6784 12.032 36.6592 19.456l11.8784 7.68 92.928-36.1472a56.4736 56.4736 0 0 1 63.7952 19.1488l3.584 5.4784 87.1936 147.2c12.9024 22.784 9.0112 49.0496-8.4992 65.8944l-4.608 3.9936-78.1824 59.2384c0.8192 8.192 1.6384 17.2544 1.6384 27.136 0 6.5536-0.3584 12.8-0.8192 18.6368l-0.8192 8.4992 78.1312 59.1872c19.6096 15.0528 26.112 40.4992 16.896 62.976l-2.9184 6.0928-87.9616 148.8384c-9.0624 17.2544-27.9552 27.136-47.7184 27.136-4.352 0-8.7552-0.3584-13.1584-1.3312l-6.5536-1.9456-92.928-36.1984c-12.288 8.0384-24.2176 15.104-36.352 21.2992l-12.1856 5.8368-13.9776 95.3856c-3.7888 24.2688-23.7056 43.008-48.6912 45.7216l-6.4 0.3072H423.936c-25.856 0-48.128-17.5104-54.016-40.9088l-1.1264-5.9392-13.9776-94.5664a319.488 319.488 0 0 1-36.608-19.456l-11.8784-7.68-92.928 36.1984a56.4736 56.4736 0 0 1-63.7952-19.1488l-3.584-5.5296-87.1936-147.2c-12.9024-22.784-9.0112-49.0496 8.4992-65.8944l4.608-3.9936 78.1312-59.1872c-1.6384-9.8816-1.6384-18.944-1.6384-27.136l0.256-8.4992 1.3824-18.6368-78.08-59.2384a53.7088 53.7088 0 0 1-16.0256-64.4608l2.8672-5.4272 87.9616-147.968c9.0624-17.3056 27.9552-27.136 47.7184-27.136 4.352 0 8.7552 0.3584 13.1584 1.3312l6.5536 1.9456L307.2 219.7504c12.288-7.9872 24.2176-15.104 36.352-21.248l12.1856-5.888 13.1072-95.3856c3.84-24.2688 23.7056-42.9568 48.7424-45.6704L423.936 51.2h175.9232z m-22.528 81.92H446.5152l-15.872 115.6096-41.3696 18.5856a249.2416 249.2416 0 0 0-29.0816 15.8208l-8.3968 5.3248-35.2256 22.8864-110.6432-43.1104-63.8976 107.4176L235.4688 446.464l-5.0176 62.1056v10.8544l0.256 4.4032 8.3456 50.3808-97.024 73.472 63.488 107.2128 111.36-43.3152 35.6864 24.3712c7.424 5.12 15.2576 9.7792 23.4496 14.0288l12.4416 6.0416 40.8576 18.432 17.1008 115.7632h131.0208l16.9472-115.7632 40.96-18.432c8.96-4.0448 18.2784-9.1136 29.0816-15.7696l8.3968-5.376 35.2256-22.8864 110.5408 43.0592 63.3856-107.1616-94.3616-71.5264 5.12-51.712 0.6144-9.1648V507.904l-0.6144-9.1136-5.12-51.712 94.1056-71.3728-63.488-107.264-111.36 43.4176-35.6864-24.4224a228.0448 228.0448 0 0 0-23.3984-14.0288l-12.4416-6.0416-40.8576-18.3808-17.152-115.8144zM511.8976 314.368a197.9392 197.9392 0 0 1 197.3248 197.3248 197.9392 197.9392 0 0 1-197.3248 197.3248 197.9392 197.9392 0 0 1-197.3248-197.3248 197.9392 197.9392 0 0 1 197.3248-197.376z m0 81.92a116.0192 116.0192 0 0 0-115.4048 115.4048 116.0192 116.0192 0 0 0 115.4048 115.4048 116.0192 116.0192 0 0 0 115.4048-115.4048 116.0192 116.0192 0 0 0-115.4048-115.456z" p-id="1631"></path></svg>