<?xml version="1.0" standalone="no"?><!DOCTYPE svg PUBLIC "-//W3C//DTD SVG 1.1//EN" "http://www.w3.org/Graphics/SVG/1.1/DTD/svg11.dtd"><svg t="1648904860717" class="icon" viewBox="0 0 1024 1024" version="1.1" xmlns="http://www.w3.org/2000/svg" p-id="2563" xmlns:xlink="http://www.w3.org/1999/xlink" width="200" height="200"><defs><style type="text/css">@font-face { font-family: feedback-iconfont; src: url("//at.alicdn.com/t/font_1031158_u69w8yhxdu.woff2?t=1630033759944") format("woff2"), url("//at.alicdn.com/t/font_1031158_u69w8yhxdu.woff?t=1630033759944") format("woff"), url("//at.alicdn.com/t/font_1031158_u69w8yhxdu.ttf?t=1630033759944") format("truetype"); }
</style></defs><path d="M175.9232 974.8992l0.0512-0.0512-6.4512-0.2048A126.6176 126.6176 0 0 1 51.2 848.2816V427.008c0-34.9696 28.3648-63.3344 63.3344-63.3344h113.7664V114.2272C228.3008 51.2 279.4496 0 342.528 0H858.624C921.6 0 972.8 51.1488 972.8 114.2272V746.496a228.5056 228.5056 0 0 1-228.5056 228.4544h-568.32zM228.352 439.8592H127.3856v408.4224a50.5344 50.5344 0 0 0 100.864 0V439.8592z m312.2688 135.168H430.08a38.0928 38.0928 0 0 0-5.1712 75.8272l5.12 0.3584h110.4896a38.0928 38.0928 0 0 0 0-76.1856z m118.0672-163.7376H430.08a38.0928 38.0928 0 0 0-5.1712 75.776l5.12 0.4096h228.5568a38.0928 38.0928 0 0 0 0-76.1856z m114.2272-163.7376H430.1312a38.0928 38.0928 0 0 0-5.1712 75.776l5.12 0.3584h342.784a38.0928 38.0928 0 1 0 0-76.1344z" p-id="2564"></path></svg>