<?xml version="1.0" encoding="UTF-8"?>
<svg width="20px" height="20px" viewBox="0 0 20 20" version="1.1" xmlns="http://www.w3.org/2000/svg" xmlns:xlink="http://www.w3.org/1999/xlink">
    <title>home_down</title>
    <g id="人资工作台一期页面" stroke="none" stroke-width="1" fill="none" fill-rule="evenodd">
        <g id="菜单栏图标" transform="translate(-126.000000, -101.000000)">
            <g id="home_down" transform="translate(126.000000, 101.000000)">
                <rect id="矩形" fill="#D8D8D8" opacity="0" x="0" y="0" width="20" height="20"></rect>
                <path d="M9.70679222,2.09015789 C9.87093257,1.96994737 10.0940203,1.96994737 10.2582308,2.09015789 L10.2582308,2.09015789 L18.7738799,8.32514035 C18.9818799,8.47745614 19.0270729,8.76952632 18.874722,8.97749123 C18.7832834,9.10240351 18.6414589,9.16856891 18.4977396,9.16856891 C18.4020203,9.16856891 18.3054589,9.13924561 18.2223712,9.07836842 L18.2223712,9.07836842 L16.984,8.172 L16.9842308,17.5474561 C16.9842308,17.7766023 16.8191089,17.967185 16.6013613,18.0067077 L16.5174589,18.0142281 L11.8497747,18.0142281 C11.6041606,18.0142281 11.4032133,17.8243333 11.3848273,17.583386 C11.3837045,17.572614 11.3830027,17.5608947 11.3830027,17.5474561 L11.3830027,13.025 C11.3830027,12.2527895 10.7547571,11.6245088 9.98251152,11.6245088 C9.2102659,11.6245088 8.58202029,12.2527544 8.58202029,13.025 L8.58202029,13.025 L8.58202029,17.5474561 C8.58202029,17.5609649 8.58131853,17.5728947 8.58019573,17.583807 C8.56159924,17.8245789 8.36072204,18.0142281 8.11524836,18.0142281 L8.11524836,18.0142281 L3.44756415,18.0142281 C3.18980976,18.0142281 2.98079222,17.8052456 2.98079222,17.5474561 L2.98079222,17.5474561 L2.98,8.172 L1.74258169,9.07840351 C1.55772399,9.21373294 1.30638503,9.19311696 1.14583787,9.04077985 L1.09019573,8.97752632 C0.937879939,8.76952632 0.983072921,8.47745614 1.19107292,8.32514035 L1.19107292,8.32514035 Z" id="形状结合" stroke="#FFFFFF" stroke-width="0.5" fill="#FFFFFF" fill-rule="nonzero"></path>
            </g>
        </g>
    </g>
</svg>