<?xml version="1.0" encoding="UTF-8"?>
<svg width="20px" height="20px" viewBox="0 0 20 20" version="1.1" xmlns="http://www.w3.org/2000/svg" xmlns:xlink="http://www.w3.org/1999/xlink">
    <title>houtaiguanli_normal</title>
    <g id="人资工作台一期页面" stroke="none" stroke-width="1" fill="none" fill-rule="evenodd">
        <g id="菜单栏图标" transform="translate(-168.000000, -249.000000)">
            <g id="houtaiguanli_normal" transform="translate(168.000000, 249.000000)">
                <rect id="矩形" fill="#D8D8D8" opacity="0" x="0" y="0" width="20" height="20"></rect>
                <g id="205设置备份" transform="translate(1.000000, 1.000000)" fill="#FFFFFF" fill-rule="nonzero">
                    <path d="M10.7163606,0 C11.2204002,0 11.6423339,0.328424027 11.7674227,0.795796681 L11.7923864,0.915424957 L12.0654079,2.76233496 C12.3063092,2.87074054 12.5472105,2.99721373 12.7813364,3.14175451 L13.012953,3.29231783 L14.8277428,2.585674 C14.9562235,2.53749374 15.0686441,2.52143365 15.1971248,2.52143365 C15.53974,2.52143365 15.8696657,2.68639652 16.0741069,2.9599247 L16.1446699,3.06747661 L17.8470392,5.94223218 C18.099059,6.38697305 18.0226548,6.90013559 17.680985,7.22908594 L17.5900778,7.30733957 L16.0643695,8.46366583 C16.0804296,8.6242667 16.0964897,8.80092766 16.0964897,8.9936487 C16.0964897,9.1221294 16.0893519,9.24347227 16.0798348,9.35767734 L16.0643695,9.52363157 L17.5900778,10.6799578 C17.9728432,10.9743928 18.0992048,11.4712517 17.9196813,11.9107572 L17.8630993,12.0290051 L16.1446699,14.9358809 C15.968009,15.2731427 15.598627,15.4658637 15.2131849,15.4658637 C15.1275311,15.4658637 15.0418773,15.4587259 14.9562235,15.4396918 L14.8277428,15.4016234 L13.012953,14.6949796 C12.7720517,14.8515654 12.5401842,14.9900837 12.3037998,15.1105343 L12.0654079,15.2249624 L11.7923864,17.0879325 C11.7182629,17.5623228 11.3293997,17.9272384 10.8405357,17.9805722 L10.7163606,17.9872974 L7.27950195,17.9872974 C6.77546229,17.9872974 6.33984431,17.645189 6.22528187,17.1883428 L6.20347612,17.0718724 L5.93045464,15.2249624 C5.68955334,15.1165569 5.44865203,14.9900837 5.21452608,14.8455429 L4.98290951,14.6949796 L3.16811968,15.4016234 C3.03963899,15.4498037 2.92721838,15.4658637 2.79873768,15.4658637 C2.45612249,15.4658637 2.12619676,15.3009009 1.92175559,15.0273727 L1.85119255,14.9198208 L0.148823333,12.0450652 C-0.103196493,11.6003244 -0.0267922924,11.0871618 0.314877469,10.7582115 L0.405784725,10.6799578 L1.93149299,9.52363157 C1.89937281,9.33091053 1.89937281,9.15424957 1.89937281,8.9936487 L1.90413136,8.82769447 L1.93149299,8.46366583 L0.405784725,7.30733957 C0.0203426374,7.01084566 -0.105097095,6.48171806 0.0926239938,6.0483808 L0.148823333,5.94223218 L1.86725264,3.05141652 C2.04391359,2.7141547 2.4132956,2.52143365 2.79873768,2.52143365 C2.88439148,2.52143365 2.97004528,2.52857147 3.05569907,2.54760565 L3.18417977,2.585674 L4.9989696,3.29231783 C5.2398709,3.13573198 5.47173841,2.99721373 5.70812281,2.87676308 L5.94651473,2.76233496 L6.20347612,0.89936487 C6.2775996,0.424974609 6.66646277,0.0600590234 7.15532684,0.0067252071 L7.27950195,0 L10.7163606,0 Z M10.276,1.6 L7.721,1.6 L7.41052766,3.85806611 L6.60309821,4.22140937 C6.42807955,4.30016776 6.24612622,4.39881409 6.03505786,4.52955933 L5.87095096,4.63382761 L5.183005,5.08099249 L3.022,4.239 L1.774,6.337 L3.59902169,7.71987268 L3.50070411,8.93284577 L3.50076159,9.14514491 L3.50564071,9.23058527 L3.66872402,10.2145977 L1.774,11.65 L3.014,13.744 L5.18937271,12.897572 L5.88640377,13.374488 C6.03094219,13.4733827 6.1843968,13.5649818 6.34381269,13.6479873 L6.58703812,13.765888 L7.38525149,14.125084 L7.719,16.387 L10.278,16.387 L10.6094283,14.1256163 L11.4088244,13.765888 C11.583843,13.6871296 11.7657964,13.5884833 11.9768647,13.4577381 L12.1409716,13.3534698 L12.8289176,12.9063049 L14.988,13.747 L16.226,11.654 L14.3830549,10.2569765 L14.4834664,9.24645566 L14.4951711,9.06823013 L14.4951711,8.91906727 L14.4834664,8.74084174 L14.3830549,7.73032093 L16.221,6.337 L14.981,4.242 L12.8064898,5.08972544 L12.1094587,4.61280945 C11.9649203,4.51391474 11.8114657,4.42231558 11.6520498,4.33931009 L11.4088244,4.22140937 L10.610611,3.86221335 L10.276,1.6 Z M8.99793125,5.13922783 C11.1178627,5.13922783 12.8523521,6.87371722 12.8523521,8.9936487 C12.8523521,11.1135802 11.1178627,12.8480696 8.99793125,12.8480696 C6.87799977,12.8480696 5.14351038,11.1135802 5.14351038,8.9936487 C5.14351038,6.87371722 6.87799977,5.13922783 8.99793125,5.13922783 Z M8.99793125,6.73922783 C7.76165537,6.73922783 6.74351038,7.75737282 6.74351038,8.9936487 C6.74351038,10.2299246 7.76165537,11.2480696 8.99793125,11.2480696 C10.2342071,11.2480696 11.2523521,10.2299246 11.2523521,8.9936487 C11.2523521,7.75737282 10.2342071,6.73922783 8.99793125,6.73922783 Z" id="形状结合"></path>
                </g>
            </g>
        </g>
    </g>
</svg>