<?xml version="1.0" encoding="UTF-8"?>
<svg width="20px" height="20px" viewBox="0 0 20 20" version="1.1" xmlns="http://www.w3.org/2000/svg" xmlns:xlink="http://www.w3.org/1999/xlink">
    <title>zhongxinyonggong_down</title>
    <g id="人资工作台一期页面" stroke="none" stroke-width="1" fill="none" fill-rule="evenodd">
        <g id="菜单栏图标" transform="translate(-126.000000, -199.000000)">
            <g id="zhongxinyonggong_down" transform="translate(126.000000, 199.000000)">
                <rect id="矩形" fill="#D8D8D8" opacity="0" x="0" y="0" width="20" height="20"></rect>
                <path d="M7.78966399,10.7200856 L7.9559377,10.7284205 L11.8068955,10.7321472 C12.2942361,10.6977836 12.6532631,10.7619631 12.8839766,10.9246858 C13.3938058,11.3070578 14.6611495,11.9780663 15.9062012,12.2962106 L15.9062012,12.2962106 L16.1252533,12.3760251 C16.8837139,12.6921074 17.3551242,13.2798966 17.5972764,14.0617691 C17.7418752,14.5286565 17.7832403,14.9164775 17.8026101,15.5594684 L17.8026101,15.5594684 L17.8080151,15.8956084 C17.8049728,16.467663 17.7514742,17.0638343 17.6107912,17.4380331 C17.5551217,17.5827739 17.4514328,17.7069084 17.317429,17.7942757 C16.9001921,18.0585257 16.2746474,18.3766585 15.3480227,18.7080248 C13.7631468,19.2747855 11.9417686,19.6144374 9.90913183,19.6144374 C7.91230712,19.6144374 6.11748108,19.2869653 4.54990094,18.7376373 C4.06596157,18.5680502 3.64246863,18.3914128 3.29573162,18.2276701 L3.29573162,18.2276701 L2.97518399,18.0689642 C2.77934785,17.9670107 2.62004168,17.8737429 2.50209794,17.7950705 C2.36707112,17.7106787 2.26437254,17.5859733 2.20833247,17.4402379 C2.06767392,17.0846106 2.00944932,16.5313086 2.00064142,15.9072022 L2.00064142,15.9072022 L2,15.7151512 L2.00458932,15.548131 L2.02460658,15.1120797 C2.05138349,14.7122016 2.10228048,14.4055254 2.21186783,14.0541874 C2.4734343,13.2156032 2.99953762,12.6003068 3.86361526,12.303664 L3.86361526,12.303664 L4.16509212,12.2202295 C5.31538667,11.8868926 6.43957161,11.2836106 6.92906773,10.9166243 C7.15580736,10.7567915 7.49809735,10.6940569 7.9559377,10.7284205 Z M9.9426722,0.368164062 C10.6954672,0.383070895 11.3700014,0.561952882 11.9476411,0.893629901 C12.7227964,1.33710816 13.6619269,2.28741872 13.7550946,4.27375412 C13.7811815,4.5383504 14.0196908,7.31102121 12.5849082,8.92841251 C11.9327343,9.662574 11.0495045,10.0464249 9.95757904,10.0650585 L9.95757904,10.0650585 L9.83832438,10.0650585 C8.74639891,10.0464249 7.8631691,9.662574 7.21472189,8.92841251 C5.77993929,7.31102121 6.0184486,4.5383504 6.04453556,4.27375412 C6.13770326,2.27251189 7.09174053,1.32220133 7.87434922,0.878723069 C8.65323121,0.435244808 9.46565357,0.368164062 9.87931817,0.368164062 L9.87931817,0.368164062 Z" id="形状结合" stroke="#FFFFFF" stroke-width="0.5" fill="#FFFFFF" fill-rule="nonzero"></path>
            </g>
        </g>
    </g>
</svg>